 <svg version="1.0" xmlns="http://www.w3.org/2000/svg"  width="200.000000pt" height="216.000000pt" viewBox="0 0 200.000000 216.000000"  preserveAspectRatio="xMidYMid meet">  <g transform="translate(0.000000,216.000000) scale(0.100000,-0.100000)" fill="#000000" stroke="none"> <path d="M958 1813 c-27 -17 -48 -51 -48 -78 0 -12 -15 -15 -64 -15 -48 0 -69 -5 -89 -20 -44 -35 -43 -93 2 -127 9 -7 41 -13 71 -13 93 -1 105 -30 15 -38 -52 -4 -88 -39 -88 -83 0 -44 42 -77 103 -81 l45 -3 5 -348 5 -348 25 -19 c36 -28 82 -25 119 6 l31 26 0 234 c0 129 3 234 7 234 4 0 17 -10 30 -22 23 -21 28 -21 367 -22 l344 -1 26 24 c39 37 32 97 -14 121 -13 7 -139 11 -363 11 l-342 0 -21 -25 c-12 -14 -25 -22 -28 -19 -3 4 -6 128 -6 277 0 297 -1 300 -60 331 -36 18 -39 18 -72 -2z m81 -30 l21 -18 -2 -550 -3 -549 -26 -15 c-22 -12 -31 -12 -58 -2 l-31 13 0 364 0 364 -70 0 c-58 0 -71 3 -80 19 -14 28 -12 52 6 72 14 15 27 17 80 12 l64 -6 0 53 0 53 -81 -5 c-90 -5 -109 3 -109 51 0 43 16 51 107 51 l83 0 0 37 c0 65 52 94 99 56z m808 -567 c16 -7 17 -68 1 -84 -17 -17 -689 -17 -706 0 -17 17 -15 75 2 85 16 9 680 7 703 -1z"/> <path d="M369 1800 c-19 -10 -47 -36 -62 -57 -59 -86 -197 -338 -197 -360 0 -35 16 -61 50 -78 63 -33 96 -4 194 168 38 64 71 119 75 122 4 2 42 -56 84 -129 80 -137 96 -159 134 -170 41 -13 104 41 103 87 0 13 -67 133 -173 312 -72 122 -125 149 -208 105z m117 -25 c12 -8 43 -51 69 -97 27 -46 75 -127 107 -182 32 -54 58 -108 58 -119 0 -41 -42 -67 -84 -51 -8 3 -54 75 -102 160 -48 85 -94 154 -101 154 -7 0 -44 -55 -84 -122 -117 -202 -116 -200 -151 -196 -20 2 -38 13 -51 30 -23 31 -29 17 88 218 96 166 119 198 159 216 33 14 57 11 92 -11z"/> <path d="M1207 1774 c-15 -8 -32 -26 -37 -40 -13 -33 -13 -355 0 -388 19 -52 44 -56 353 -56 283 0 284 0 305 23 46 49 10 137 -55 137 l-28 1 27 16 c33 21 51 65 39 96 -18 47 -35 52 -210 57 l-166 6 168 2 169 2 30 30 c35 36 33 71 -8 108 -25 22 -29 22 -292 22 -219 -1 -272 -4 -295 -16z m581 -26 c7 -7 12 -24 12 -38 0 -48 -8 -50 -251 -50 l-227 0 0 -35 0 -35 224 0 224 0 12 -25 c8 -19 8 -31 0 -50 l-12 -25 -225 0 -225 0 0 -35 0 -35 243 0 c260 0 267 -1 267 -50 0 -49 -4 -50 -314 -50 -255 0 -292 2 -308 17 -16 14 -18 35 -18 204 0 157 3 190 16 203 13 14 54 16 293 16 202 0 280 -3 289 -12z"/> <path d="M272 1267 c-20 -21 -22 -34 -22 -154 0 -130 0 -132 26 -152 33 -26 37 -26 71 3 l27 24 -3 128 c-2 115 -5 131 -23 152 -27 28 -49 28 -76 -1z m62 -19 c20 -28 23 -247 4 -266 -17 -17 -55 -15 -62 4 -3 9 -6 69 -6 134 0 94 3 122 16 134 21 21 30 20 48 -6z"/> <path d="M541 1224 c-12 -15 -21 -37 -21 -50 0 -29 -11 -31 -28 -4 -17 28 -56 25 -81 -6 -20 -25 -21 -40 -21 -213 0 -175 1 -189 20 -209 27 -28 61 -28 88 1 19 20 22 35 22 112 0 83 1 87 18 73 30 -26 50 -28 76 -7 26 20 26 23 26 155 0 121 -2 136 -20 154 -27 27 -55 25 -79 -6z m69 -14 c6 -12 9 -69 8 -141 -2 -99 -6 -124 -19 -132 -9 -6 -24 -7 -33 -4 -14 5 -16 25 -16 140 0 132 6 157 37 157 7 0 17 -9 23 -20z m-130 -60 c7 -12 9 -91 8 -212 l-3 -193 -30 0 -30 0 -3 199 c-2 200 1 226 34 226 7 0 18 -9 24 -20z"/> <path d="M1196 1029 c-14 -17 -26 -38 -26 -48 0 -24 27 -60 62 -81 l29 -17 -28 -6 c-46 -9 -63 -51 -63 -152 0 -97 16 -140 56 -155 14 -6 139 -10 278 -10 251 0 253 0 274 23 29 31 29 87 1 113 -13 12 -43 21 -78 25 l-56 6 53 2 c99 2 122 34 122 166 0 89 -8 117 -44 147 -19 16 -48 17 -288 18 l-266 0 -26 -31z m576 -16 c15 -14 18 -32 18 -119 0 -80 -3 -106 -16 -118 -13 -14 -49 -16 -234 -16 l-218 0 0 -35 0 -35 221 -2 222 -3 9 -28 c7 -19 7 -34 0 -45 -10 -15 -39 -17 -274 -20 -321 -3 -300 -12 -300 131 0 145 -15 137 250 137 l216 0 0 35 0 35 -221 0 c-236 0 -245 2 -245 50 0 49 6 50 289 50 232 0 267 -2 283 -17z m-204 -290 c-32 -2 -86 -2 -120 0 -35 2 -9 3 57 3 66 0 94 -1 63 -3z"/> <path d="M376 451 c-26 -17 -32 -18 -50 -5 -12 8 -44 14 -77 14 -50 0 -60 -3 -88 -32 -42 -43 -46 -63 -22 -104 l21 -36 -21 -30 c-26 -36 -19 -54 32 -80 44 -23 96 -23 141 1 36 18 38 18 54 0 37 -41 104 -7 104 53 0 26 3 29 28 26 22 -2 28 -9 30 -33 7 -61 66 -87 103 -44 l17 20 41 -20 c48 -25 101 -27 147 -5 49 24 72 61 76 125 3 50 5 54 28 54 24 0 25 -2 28 -80 3 -89 17 -115 62 -115 36 0 49 29 53 120 l3 74 35 7 c19 4 50 4 69 0 l34 -7 3 -84 c3 -91 13 -110 58 -110 39 0 54 29 57 114 3 78 3 79 31 83 l27 4 0 -84 c0 -121 -10 -116 240 -116 173 0 207 3 222 16 26 23 22 60 -8 79 -17 12 -22 20 -15 27 15 15 14 57 -1 57 -7 0 0 12 15 25 21 18 27 33 25 52 -5 42 -39 55 -132 49 -107 -7 -116 -16 -116 -118 l0 -78 -54 0 c-64 0 -66 3 -66 101 0 62 -2 70 -25 85 -19 12 -32 14 -48 7 -12 -5 -38 -6 -58 -3 -20 4 -77 5 -125 3 -49 -1 -111 -2 -139 -1 -59 3 -188 1 -212 -3 -10 -1 -27 0 -39 4 -14 5 -28 1 -42 -12 -19 -16 -22 -29 -22 -94 0 -69 -2 -75 -22 -81 -33 -8 -39 4 -42 83 -2 76 -16 103 -52 101 -24 -1 -71 0 -102 1 -29 1 -51 -27 -52 -63 0 -24 -4 -28 -30 -28 -27 0 -30 3 -30 29 0 20 -9 36 -26 50 -32 25 -32 25 -68 2z m-71 -25 c38 -16 43 -27 21 -45 -10 -9 -20 -9 -39 0 -30 14 -77 4 -77 -16 0 -14 10 -19 66 -30 40 -8 74 -39 74 -70 0 -38 -53 -75 -106 -75 -44 0 -104 22 -104 39 0 5 7 14 16 22 12 10 20 10 35 1 26 -16 86 -15 92 2 7 17 -11 36 -35 36 -10 0 -34 6 -52 14 -58 24 -59 82 -3 117 38 23 66 24 112 5z m135 -36 l0 -50 60 0 60 0 0 50 c0 48 1 50 28 50 l27 0 -1 -128 0 -127 -27 -3 c-26 -3 -27 -2 -27 52 l0 56 -60 0 -60 0 0 -55 c0 -54 0 -55 -30 -55 l-30 0 0 130 0 130 30 0 c29 0 30 -1 30 -50z m270 -38 c0 -98 7 -112 57 -112 51 0 65 30 58 124 l-6 76 33 0 33 0 0 -96 c-1 -96 -1 -97 -33 -125 -26 -23 -42 -29 -78 -29 -51 0 -98 21 -114 49 -5 11 -10 60 -10 110 l0 91 30 0 30 0 0 -88z m430 59 c0 -28 -1 -28 -42 -24 l-43 5 0 -103 0 -104 -29 0 -29 0 2 103 2 102 -45 0 c-42 0 -46 2 -46 25 l0 25 115 0 115 0 0 -29z m260 0 c0 -28 -1 -28 -45 -23 l-45 5 0 -107 0 -107 -27 3 -28 3 1 104 2 103 -43 -5 c-39 -4 -44 -2 -48 19 -2 13 -2 26 1 29 3 3 56 5 119 5 l113 0 0 -29z m82 -71 l-4 -100 76 0 c74 0 76 -1 76 -24 0 -24 -2 -25 -100 -28 l-100 -3 0 128 0 127 28 0 28 0 -4 -100z m376 73 c-3 -26 -4 -26 -75 -24 -72 2 -73 2 -73 -23 0 -23 4 -25 58 -28 49 -3 57 -6 57 -23 0 -17 -8 -20 -57 -23 -54 -3 -58 -5 -58 -27 0 -24 2 -25 75 -25 73 0 75 -1 75 -24 0 -24 -2 -25 -100 -28 l-100 -3 0 128 0 127 101 0 100 0 -3 -27z"/> <path d="M1946 117 c-24 -39 -48 -63 -71 -72 -41 -18 -54 -35 -25 -35 65 0 155 100 138 152 -3 7 -21 -14 -42 -45z"/> <path d="M10 149 c0 -47 67 -121 123 -134 31 -8 38 10 8 20 -34 10 -71 46 -91 86 -19 37 -40 52 -40 28z"/> </g> </svg> 